<?xml version="1.0" encoding="utf-8"?>
<!-- Generator: Adobe Illustrator 19.0.0, SVG Export Plug-In . SVG Version: 6.00 Build 0)  -->
<svg version="1.1" xmlns="http://www.w3.org/2000/svg" xmlns:xlink="http://www.w3.org/1999/xlink" x="0px" y="0px"
	 viewBox="0 0 20 20" style="enable-background:new 0 0 20 20;" xml:space="preserve">
<style type="text/css">
	.st0{fill-rule:evenodd;clip-rule:evenodd;fill:#A3A2A2;}
</style>
<path id="XMLID_1_" class="st0" d="M9.4,10l4.1,3.9c0.4,0.4,0.4,1,0,1.4l-0.4,0.4c-0.4,0.4-1.1,0.4-1.5,0l-4.8-4.6c0,0,0,0,0,0
	l-0.4-0.4c-0.2-0.2-0.3-0.5-0.3-0.7c0-0.3,0.1-0.5,0.3-0.7l0.4-0.4c0,0,0,0,0,0l4.8-4.6c0.4-0.4,1.1-0.4,1.5,0l0.4,0.4
	c0.4,0.4,0.4,1,0,1.4L9.4,10z"/>
</svg>
