<?xml version="1.0" encoding="utf-8"?>
<!-- Generator: Adobe Illustrator 19.0.0, SVG Export Plug-In . SVG Version: 6.00 Build 0)  -->
<svg version="1.1" xmlns="http://www.w3.org/2000/svg" xmlns:xlink="http://www.w3.org/1999/xlink" x="0px" y="0px"
	 viewBox="0 0 20 20" style="enable-background:new 0 0 20 20;" xml:space="preserve">
<style type="text/css">
	.st0{fill-rule:evenodd;clip-rule:evenodd;fill:#A3A2A2;}
</style>
<path class="st0" d="M10.6,10L6.4,6.1C6,5.7,6,5,6.4,4.6l0.4-0.4c0.4-0.4,1.1-0.4,1.5,0l4.8,4.6c0,0,0,0,0,0l0.4,0.4
	c0.2,0.2,0.3,0.5,0.3,0.7c0,0.3-0.1,0.5-0.3,0.7l-0.4,0.4c0,0,0,0,0,0l-4.8,4.6c-0.4,0.4-1.1,0.4-1.5,0l-0.4-0.4
	c-0.4-0.4-0.4-1,0-1.4L10.6,10z"/>
</svg>
